<svg id="architecture" xmlns="http://www.w3.org/2000/svg" width="125.444" height="117.12" viewBox="0 0 125.444 117.12">
  <g id="Group_9570" data-name="Group 9570" transform="translate(0 0)">
    <path id="Path_27668" data-name="Path 27668" d="M119.042,16.987H6.395A6.4,6.4,0,0,0,0,23.382v79.557a6.406,6.406,0,0,0,6.395,6.4H39.475v9.581h-12.3a7.6,7.6,0,0,0-7.589,7.59v5.146a2.45,2.45,0,0,0,2.45,2.45h81.374a2.45,2.45,0,0,0,2.45-2.45v-5.146a7.6,7.6,0,0,0-7.6-7.59H85.969v-9.581h33.073a6.409,6.409,0,0,0,6.4-6.4V23.382a6.406,6.406,0,0,0-6.4-6.395ZM100.959,126.511v2.7H24.485v-2.7a2.692,2.692,0,0,1,2.689-2.689H98.263a2.7,2.7,0,0,1,2.7,2.689Zm-19.89-7.59H44.375v-9.581H81.069Zm37.974-14.48H6.395a1.519,1.519,0,0,1-1.495-1.5V98.013H51.718a2.45,2.45,0,0,0,0-4.9H4.9V23.382a1.515,1.515,0,0,1,1.495-1.495H119.043a1.518,1.518,0,0,1,1.5,1.495V93.113H73.72a2.45,2.45,0,0,0,0,4.9h46.825v4.926a1.522,1.522,0,0,1-1.5,1.5Z" transform="translate(0 -16.987)" fill="#ef3f46"/>
    <path id="Path_27669" data-name="Path 27669" d="M338.19,220.46h-33.2a2.45,2.45,0,0,0-2.45,2.45v15.252a2.45,2.45,0,0,0,2.45,2.45h33.2a2.45,2.45,0,0,0,2.45-2.45V222.91a2.45,2.45,0,0,0-2.45-2.45Zm-2.45,15.252h-28.3V225.36h28.3v10.351Z" transform="translate(-228.412 -170.607)" fill="#ef3f46"/>
    <path id="Path_27670" data-name="Path 27670" d="M95,83.872h-.348A25.51,25.51,0,0,0,92.8,79.427l.24-.241a4.58,4.58,0,0,0,.008-6.486l-4.215-4.215a4.539,4.539,0,0,0-3.246-1.35h0a4.535,4.535,0,0,0-3.24,1.342l-.246.246a25.649,25.649,0,0,0-4.447-1.844v-.343a4.591,4.591,0,0,0-4.582-4.589H67.1a4.591,4.591,0,0,0-4.582,4.589v.343a25.66,25.66,0,0,0-4.447,1.844l-.246-.246a4.554,4.554,0,0,0-3.242-1.342h-.009a4.53,4.53,0,0,0-3.227,1.341L47.115,72.7a4.592,4.592,0,0,0,0,6.479l.25.251a25.327,25.327,0,0,0-1.844,4.443h-.347a4.587,4.587,0,0,0-4.582,4.582v5.973a4.591,4.591,0,0,0,4.582,4.589h.347a25.345,25.345,0,0,0,1.842,4.439l-.256.255a4.611,4.611,0,0,0,.009,6.48l4.228,4.221a4.6,4.6,0,0,0,6.479,0l.246-.246a25.5,25.5,0,0,0,4.447,1.841v.346a4.587,4.587,0,0,0,4.582,4.582h5.973a4.587,4.587,0,0,0,4.582-4.582v-.346a25.469,25.469,0,0,0,4.447-1.841l.246.246a4.592,4.592,0,0,0,6.479,0l4.222-4.222a4.589,4.589,0,0,0,0-6.486l-.245-.245a25.49,25.49,0,0,0,1.845-4.441H95a4.591,4.591,0,0,0,4.582-4.589V88.454A4.587,4.587,0,0,0,95,83.872ZM94.68,94.116H92.768a2.45,2.45,0,0,0-2.391,1.913,20.653,20.653,0,0,1-2.709,6.521,2.45,2.45,0,0,0,.339,3.042l1.355,1.354-3.775,3.775-1.351-1.351a2.451,2.451,0,0,0-3.042-.338,20.632,20.632,0,0,1-6.526,2.7,2.45,2.45,0,0,0-1.914,2.391v1.912H67.417v-1.912a2.45,2.45,0,0,0-1.914-2.391,20.632,20.632,0,0,1-6.526-2.7,2.451,2.451,0,0,0-3.042.338l-1.351,1.351L50.8,106.946l1.357-1.351a2.45,2.45,0,0,0,.34-3.05,20.511,20.511,0,0,1-2.706-6.516A2.45,2.45,0,0,0,47.4,94.116H45.491V88.771H47.4a2.45,2.45,0,0,0,2.391-1.913A20.508,20.508,0,0,1,52.5,80.343a2.451,2.451,0,0,0-.336-3.046l-1.358-1.358,3.778-3.772,1.351,1.351a2.45,2.45,0,0,0,3.042.339,20.812,20.812,0,0,1,6.532-2.71,2.45,2.45,0,0,0,1.908-2.389V66.845h5.337v1.912a2.45,2.45,0,0,0,1.908,2.389,20.806,20.806,0,0,1,6.532,2.71,2.451,2.451,0,0,0,3.042-.339l1.351-1.351,3.772,3.772L88,77.3a2.45,2.45,0,0,0-.335,3.037,20.661,20.661,0,0,1,2.709,6.521,2.45,2.45,0,0,0,2.391,1.913h1.912v5.345Z" transform="translate(-30.647 -50.931)" fill="#ef3f46"/>
    <path id="Path_27671" data-name="Path 27671" d="M131.2,124.076a2.472,2.472,0,0,0-1.166-1.808L118.2,115.135a2.451,2.451,0,0,0-2.529,0l-11.841,7.133a2.481,2.481,0,0,0-1.186,2.1v13.939a2.45,2.45,0,0,0,1.186,2.1l11.841,7.133a2.478,2.478,0,0,0,2.529,0l11.834-7.133a2.45,2.45,0,0,0,1.185-2.1V124.366a2.508,2.508,0,0,0-.02-.291Zm-14.265-3.982,7.088,4.272-7.088,4.272-7.092-4.272Zm-9.391,8.608,6.941,4.181V141.1l-6.941-4.181Zm18.775,8.219-6.934,4.179v-8.218l6.934-4.179Z" transform="translate(-77.493 -90.823)" fill="#ef3f46"/>
    <path id="Path_27672" data-name="Path 27672" d="M349.886,87.652h22.2a2.45,2.45,0,0,0,0-4.9h-22.2a2.45,2.45,0,0,0,0,4.9Z" transform="translate(-262.311 -66.639)" fill="#ef3f46"/>
    <path id="Path_27673" data-name="Path 27673" d="M304.987,87.652H305a2.457,2.457,0,1,0-.014,0Z" transform="translate(-228.413 -66.639)" fill="#ef3f46"/>
    <path id="Path_27674" data-name="Path 27674" d="M349.857,130.965h22.2a2.45,2.45,0,1,0,0-4.9h-22.2a2.45,2.45,0,1,0,0,4.9Z" transform="translate(-262.289 -99.34)" fill="#ef3f46"/>
    <path id="Path_27675" data-name="Path 27675" d="M304.957,130.965h.007a2.454,2.454,0,1,0-.007,0Z" transform="translate(-228.39 -99.34)" fill="#ef3f46"/>
    <path id="Path_27676" data-name="Path 27676" d="M349.8,174.279H372a2.45,2.45,0,0,0,0-4.9H349.8a2.45,2.45,0,0,0,0,4.9Z" transform="translate(-262.247 -132.042)" fill="#ef3f46"/>
    <path id="Path_27677" data-name="Path 27677" d="M304.9,174.279h.014a2.457,2.457,0,1,0-.014,0Z" transform="translate(-228.349 -132.042)" fill="#ef3f46"/>
    <path id="Path_27678" data-name="Path 27678" d="M248.435,327.7a2.45,2.45,0,0,0,0,4.9h.014a2.45,2.45,0,1,0-.014-4.9Z" transform="translate(-185.717 -251.569)" fill="#ef3f46"/>
  </g>
</svg>
